<mxfile host="app.diagrams.net" modified="2023-04-29T23:51:24.672Z" agent="Mozilla/5.0 (Windows NT 10.0; Win64; x64) AppleWebKit/537.36 (KHTML, like Gecko) Chrome/112.0.0.0 Safari/537.36" etag="DXOtGexIzVFL7ooyswJY" version="21.2.3" type="github">
  <diagram name="Page-1" id="ovVE_IsnzbApBG_TGXQu">
    <mxGraphModel dx="2537" dy="936" grid="1" gridSize="10" guides="1" tooltips="1" connect="1" arrows="1" fold="1" page="1" pageScale="1" pageWidth="850" pageHeight="1100" math="0" shadow="0">
      <root>
        <mxCell id="0" />
        <mxCell id="1" parent="0" />
        <mxCell id="ojPC6xP-fotPtnYqMYwn-2" value="" style="rounded=0;whiteSpace=wrap;html=1;" parent="1" vertex="1">
          <mxGeometry x="-290" y="10" width="970" height="650" as="geometry" />
        </mxCell>
        <mxCell id="ojPC6xP-fotPtnYqMYwn-25" value="" style="rounded=0;whiteSpace=wrap;html=1;" parent="1" vertex="1">
          <mxGeometry x="-290" y="40" width="970" height="30" as="geometry" />
        </mxCell>
        <mxCell id="ojPC6xP-fotPtnYqMYwn-37" value="&amp;nbsp;Port Scan" style="rounded=0;whiteSpace=wrap;html=1;align=left;" parent="1" vertex="1">
          <mxGeometry x="-245" y="50" width="70" height="20" as="geometry" />
        </mxCell>
        <mxCell id="ojPC6xP-fotPtnYqMYwn-3" value="" style="rounded=0;whiteSpace=wrap;html=1;" parent="1" vertex="1">
          <mxGeometry x="-290" y="10" width="970" height="30" as="geometry" />
        </mxCell>
        <mxCell id="ojPC6xP-fotPtnYqMYwn-4" value="" style="rounded=0;whiteSpace=wrap;html=1;" parent="1" vertex="1">
          <mxGeometry x="-290" y="640" width="970" height="20" as="geometry" />
        </mxCell>
        <mxCell id="ojPC6xP-fotPtnYqMYwn-5" value="&#39;s&#39; to split" style="rounded=0;whiteSpace=wrap;html=1;" parent="1" vertex="1">
          <mxGeometry x="-160" y="640" width="60" height="20" as="geometry" />
        </mxCell>
        <mxCell id="ojPC6xP-fotPtnYqMYwn-6" value="&#39;d&#39; to toggle dark mode" style="rounded=0;whiteSpace=wrap;html=1;" parent="1" vertex="1">
          <mxGeometry x="-290" y="640" width="130" height="20" as="geometry" />
        </mxCell>
        <mxCell id="ojPC6xP-fotPtnYqMYwn-14" value="192.168.0.1" style="rounded=0;whiteSpace=wrap;html=1;align=left;fillColor=#f5f5f5;gradientColor=#DBDBDB;strokeColor=#666666;" parent="1" vertex="1">
          <mxGeometry x="-160" y="10" width="80" height="30" as="geometry" />
        </mxCell>
        <mxCell id="ojPC6xP-fotPtnYqMYwn-23" value="File" style="rounded=0;whiteSpace=wrap;html=1;fillColor=#C4C4C4;" parent="1" vertex="1">
          <mxGeometry x="-280" y="10" width="40" height="30" as="geometry" />
        </mxCell>
        <mxCell id="ojPC6xP-fotPtnYqMYwn-27" value="X" style="rounded=0;whiteSpace=wrap;html=1;fillColor=#FF0000;strokeColor=#996185;gradientColor=none;" parent="1" vertex="1">
          <mxGeometry x="-90" y="10" width="10" height="30" as="geometry" />
        </mxCell>
        <mxCell id="Bo6d8HgxscBZDHdHocK7-2" value="Network" style="rounded=0;whiteSpace=wrap;html=1;fillColor=#c4c4c4;" vertex="1" parent="1">
          <mxGeometry x="-240" y="10" width="60" height="30" as="geometry" />
        </mxCell>
        <mxCell id="Bo6d8HgxscBZDHdHocK7-3" value="+" style="rounded=0;whiteSpace=wrap;html=1;fillColor=#c4c4c4;" vertex="1" parent="1">
          <mxGeometry x="-180" y="10" width="20" height="30" as="geometry" />
        </mxCell>
        <mxCell id="Bo6d8HgxscBZDHdHocK7-4" value="192.168.0.2" style="rounded=0;whiteSpace=wrap;html=1;align=left;" vertex="1" parent="1">
          <mxGeometry x="-80" y="10" width="80" height="30" as="geometry" />
        </mxCell>
        <mxCell id="Bo6d8HgxscBZDHdHocK7-5" value="X" style="rounded=0;whiteSpace=wrap;html=1;fillColor=#FF0000;strokeColor=#996185;gradientColor=none;" vertex="1" parent="1">
          <mxGeometry x="-10" y="10" width="10" height="30" as="geometry" />
        </mxCell>
        <mxCell id="Bo6d8HgxscBZDHdHocK7-6" value="192.168.0.1" style="rounded=0;whiteSpace=wrap;html=1;align=left;fillColor=#f5f5f5;gradientColor=#DBDBDB;strokeColor=#666666;" vertex="1" parent="1">
          <mxGeometry y="10" width="80" height="30" as="geometry" />
        </mxCell>
        <mxCell id="Bo6d8HgxscBZDHdHocK7-7" value="X" style="rounded=0;whiteSpace=wrap;html=1;fillColor=#FF0000;strokeColor=#996185;gradientColor=none;" vertex="1" parent="1">
          <mxGeometry x="70" y="10" width="10" height="30" as="geometry" />
        </mxCell>
        <mxCell id="Bo6d8HgxscBZDHdHocK7-9" value="+" style="rounded=0;whiteSpace=wrap;html=1;fillColor=#c4c4c4;" vertex="1" parent="1">
          <mxGeometry x="-280" y="40" width="20" height="30" as="geometry" />
        </mxCell>
        <mxCell id="Bo6d8HgxscBZDHdHocK7-11" value="X" style="rounded=0;whiteSpace=wrap;html=1;fillColor=#FF0000;strokeColor=#996185;gradientColor=none;" vertex="1" parent="1">
          <mxGeometry x="-185" y="50" width="10" height="20" as="geometry" />
        </mxCell>
        <mxCell id="Bo6d8HgxscBZDHdHocK7-14" value="&amp;nbsp;Dir Scan" style="rounded=0;whiteSpace=wrap;html=1;align=left;fillColor=#eeeeee;" vertex="1" parent="1">
          <mxGeometry x="-175" y="50" width="70" height="20" as="geometry" />
        </mxCell>
        <mxCell id="Bo6d8HgxscBZDHdHocK7-15" value="X" style="rounded=0;whiteSpace=wrap;html=1;fillColor=#FF0000;strokeColor=#996185;gradientColor=none;" vertex="1" parent="1">
          <mxGeometry x="-115" y="50" width="10" height="20" as="geometry" />
        </mxCell>
        <mxCell id="Bo6d8HgxscBZDHdHocK7-18" value="&amp;nbsp;Terminal" style="rounded=0;whiteSpace=wrap;html=1;align=left;fillColor=#eeeeee;" vertex="1" parent="1">
          <mxGeometry x="-105" y="50" width="70" height="20" as="geometry" />
        </mxCell>
        <mxCell id="Bo6d8HgxscBZDHdHocK7-19" value="X" style="rounded=0;whiteSpace=wrap;html=1;fillColor=#FF0000;strokeColor=#996185;gradientColor=none;" vertex="1" parent="1">
          <mxGeometry x="-45" y="50" width="10" height="20" as="geometry" />
        </mxCell>
        <mxCell id="Bo6d8HgxscBZDHdHocK7-24" value="&lt;p&gt;&lt;font style=&quot;font-size: 16px;&quot;&gt;&lt;b&gt;Port Scanner&lt;/b&gt;&lt;/font&gt;&lt;/p&gt;" style="rounded=0;whiteSpace=wrap;html=1;strokeColor=default;fontFamily=Helvetica;fontSize=12;fontColor=default;fillColor=default;verticalAlign=top;" vertex="1" parent="1">
          <mxGeometry x="-280" y="70" width="950" height="570" as="geometry" />
        </mxCell>
        <mxCell id="ojPC6xP-fotPtnYqMYwn-12" value="Save" style="rounded=0;whiteSpace=wrap;html=1;" parent="1" vertex="1">
          <mxGeometry x="-270" y="60" width="80" height="20" as="geometry" />
        </mxCell>
        <mxCell id="ojPC6xP-fotPtnYqMYwn-13" value="Open" style="rounded=0;whiteSpace=wrap;html=1;" parent="1" vertex="1">
          <mxGeometry x="-270" y="40" width="80" height="20" as="geometry" />
        </mxCell>
        <mxCell id="ojPC6xP-fotPtnYqMYwn-24" value="Save As" style="rounded=0;whiteSpace=wrap;html=1;" parent="1" vertex="1">
          <mxGeometry x="-270" y="80" width="80" height="20" as="geometry" />
        </mxCell>
        <mxCell id="Bo6d8HgxscBZDHdHocK7-1" value="Exit" style="rounded=0;whiteSpace=wrap;html=1;" vertex="1" parent="1">
          <mxGeometry x="-270" y="100" width="80" height="20" as="geometry" />
        </mxCell>
        <mxCell id="Bo6d8HgxscBZDHdHocK7-22" value="&lt;h3 style=&quot;&quot;&gt;&lt;/h3&gt;&lt;h3&gt;&lt;span style=&quot;white-space: pre;&quot;&gt;	&lt;/span&gt;&lt;span style=&quot;white-space: pre;&quot;&gt;	&lt;/span&gt;&lt;span style=&quot;white-space: pre;&quot;&gt;	&lt;/span&gt;&lt;span style=&quot;white-space: pre;&quot;&gt;	&lt;/span&gt;&lt;span style=&quot;white-space: pre;&quot;&gt;	&lt;/span&gt;&lt;span style=&quot;white-space: pre;&quot;&gt;	&lt;/span&gt;&lt;span style=&quot;white-space: pre;&quot;&gt;	&lt;/span&gt;&lt;span style=&quot;white-space: pre;&quot;&gt;	&lt;/span&gt;&lt;span style=&quot;white-space: pre;&quot;&gt;	&lt;/span&gt;&lt;span style=&quot;white-space: pre;&quot;&gt;	&lt;/span&gt;&lt;span style=&quot;white-space: pre;&quot;&gt;	&lt;/span&gt;&lt;span style=&quot;white-space: pre;&quot;&gt;	&lt;/span&gt;&lt;span style=&quot;white-space: pre;&quot;&gt;	&lt;/span&gt;&lt;span style=&quot;white-space: pre;&quot;&gt;	&lt;/span&gt;Scans&lt;/h3&gt;" style="rounded=0;align=left;verticalAlign=top;fontStyle=0;html=1;labelPosition=center;verticalLabelPosition=middle;" vertex="1" parent="1">
          <mxGeometry x="-270" y="120" width="930" height="100" as="geometry" />
        </mxCell>
        <mxCell id="ojPC6xP-fotPtnYqMYwn-17" value="&lt;h3 style=&quot;&quot;&gt;&lt;/h3&gt;&lt;h3&gt;&lt;span style=&quot;white-space: pre;&quot;&gt;	&lt;/span&gt;&lt;span style=&quot;white-space: pre;&quot;&gt;	&lt;/span&gt;&lt;span style=&quot;white-space: pre;&quot;&gt;	&lt;/span&gt;&lt;span style=&quot;white-space: pre;&quot;&gt;	&lt;/span&gt;&lt;span style=&quot;white-space: pre;&quot;&gt;	&lt;/span&gt;&lt;span style=&quot;white-space: pre;&quot;&gt;	&lt;/span&gt;&lt;span style=&quot;white-space: pre;&quot;&gt;	&lt;/span&gt;&lt;span style=&quot;white-space: pre;&quot;&gt;	&lt;/span&gt;&lt;span style=&quot;white-space: pre;&quot;&gt;	&lt;/span&gt;&lt;span style=&quot;white-space: pre;&quot;&gt;	&lt;/span&gt;&lt;span style=&quot;white-space: pre;&quot;&gt;	&lt;/span&gt;&lt;span style=&quot;white-space: pre;&quot;&gt;	&lt;/span&gt;&lt;span style=&quot;white-space: pre;&quot;&gt;	&lt;/span&gt;&lt;span style=&quot;white-space: pre;&quot;&gt;	&lt;/span&gt;Output Log&lt;/h3&gt;Nmap scan results:&lt;br&gt;&lt;br&gt;Port 22&lt;br&gt;&lt;br&gt;Port 80&lt;br&gt;&lt;br&gt;Port 443&lt;br&gt;&lt;br&gt;Port 3389" style="rounded=0;align=left;verticalAlign=top;fontStyle=0;html=1;labelPosition=center;verticalLabelPosition=middle;" parent="1" vertex="1">
          <mxGeometry x="-270" y="230" width="930" height="400" as="geometry" />
        </mxCell>
        <mxCell id="Bo6d8HgxscBZDHdHocK7-28" value="&lt;h3&gt;TCP Scan&lt;/h3&gt;" style="rounded=1;whiteSpace=wrap;html=1;strokeColor=default;fontFamily=Helvetica;fontSize=12;fontColor=default;fillColor=default;" vertex="1" parent="1">
          <mxGeometry x="-245" y="165" width="80" height="40" as="geometry" />
        </mxCell>
        <mxCell id="Bo6d8HgxscBZDHdHocK7-29" value="&lt;h3&gt;UDP Scan&lt;/h3&gt;" style="rounded=1;whiteSpace=wrap;html=1;strokeColor=default;fontFamily=Helvetica;fontSize=12;fontColor=default;fillColor=default;" vertex="1" parent="1">
          <mxGeometry x="-140" y="165" width="80" height="40" as="geometry" />
        </mxCell>
      </root>
    </mxGraphModel>
  </diagram>
</mxfile>
